# xmcd
#
# Track frame offsets:
#	187
#	13684
#	29822
#	45959
#	60944
#	75864
#	92109
#	105034
#	115739
#	130659
#	143779
#	158414
#
# Disc length: 2367 seconds
#
# Revision: 3
# Processed by: cddbd v1.5.2PL0 Copyright (c) Steve Scherf et al.
# Submitted via: EZCDAudioConverter 6.0.7.1
#
DISCID=7c093d0c
DTITLE=Don Williams - Best Of Don Williams
DYEAR=1995
DGENRE=Country
TTITLE0=Lord Have Mercy On A Country Boy
TTITLE1=Cryin' Eyes
TTITLE2=I've Been Loved By The Best
TTITLE3=Just As Long As I Have You
TTITLE4=In The Family
TTITLE5=Standing Knee Deep In A River
TTITLE6=True Love
TTITLE7=We're All The Way
TTITLE8=It's Who You Love
TTITLE9=One Good Well
TTITLE10=Back In My Younger Days
TTITLE11=Maybe That's All It Takes
EXTD=
EXTT0=
EXTT1=
EXTT2=
EXTT3=
EXTT4=
EXTT5=
EXTT6=
EXTT7=
EXTT8=
EXTT9=
EXTT10=
EXTT11=
PLAYORDER=
